<svg xmlns="http://www.w3.org/2000/svg" viewBox="0 0 512 512" role="img" aria-label="깊은샘 묵상">
  <rect width="512" height="512" rx="96" fill="#0f766e"/>
  <path d="M154 112h166c44 0 72 28 72 72v232H206c-30 0-52-22-52-52V112Z" fill="#f8fafc"/>
  <path d="M154 112h166c44 0 72 28 72 72v204H206c-30 0-52-22-52-52V112Z" fill="#ffffff"/>
  <path d="M206 416h186v-28H206c-16 0-28-12-28-28s12-28 28-28h170V184c0-26-16-42-42-42H178v218c0 16 12 28 28 28v28Z" fill="#ccfbf1"/>
  <path d="M255 178h36v64h58v34h-58v86h-36v-86h-58v-34h58v-64Z" fill="#0f766e"/>
</svg>
